<svg version="1.1" id="Layer_1" xmlns="http://www.w3.org/2000/svg" xmlns:xlink="http://www.w3.org/1999/xlink" x="0px" y="0px"
	 width="100%" viewBox="0 0 1024 1024" enable-background="new 0 0 1024 1024" xml:space="preserve">
<path fill="#000000" opacity="1.000000" stroke="none" 
	d="
M136.657684,503.991028 
	C135.397797,456.217896 142.958084,410.421417 159.761505,366.191467 
	C173.234497,330.727966 191.784531,298.125000 215.459137,268.492889 
	C243.184937,233.790131 275.687805,204.520279 314.412323,182.439713 
	C315.817810,181.638306 317.111145,180.419754 319.397919,180.766113 
	C318.250763,186.734726 317.114410,192.668091 315.963135,198.598557 
	C315.868469,199.086166 315.461487,199.600494 315.554688,200.024323 
	C317.406006,208.442932 311.257019,211.443222 305.722473,215.239487 
	C276.918549,234.996674 251.609085,258.576202 231.132477,286.884125 
	C205.241684,322.676910 183.387650,360.641510 171.882111,403.831482 
	C165.313828,428.487793 161.137680,453.455109 160.117172,478.968536 
	C157.708725,539.181824 169.578033,596.334961 196.873672,650.122742 
	C227.503677,710.481018 272.758911,756.921021 331.002045,791.162659 
	C366.587036,812.083374 404.748047,825.136414 445.194855,832.924805 
	C473.566742,838.388123 502.024567,840.440002 530.589783,838.384338 
	C576.677368,835.067688 620.647156,823.425781 661.493652,801.075500 
	C701.776794,779.033569 737.887695,751.855713 767.539551,716.524292 
	C800.560242,677.178772 824.458801,633.056152 837.719910,583.279480 
	C843.726746,560.732727 847.599976,537.933472 848.828857,514.583069 
	C852.693848,441.147980 835.014771,373.400970 795.435791,311.526520 
	C767.359009,267.633484 731.254456,231.703842 686.430542,204.804062 
	C684.367920,203.566238 682.511169,202.435776 682.653259,199.533264 
	C682.988037,192.691956 682.309998,185.924118 680.840637,179.225479 
	C680.645203,178.334549 681.046265,177.312759 681.166321,176.388367 
	C683.360901,175.962326 684.925354,177.026474 686.510986,177.881210 
	C731.400452,202.078110 768.470642,235.304413 799.187683,275.788483 
	C829.475708,315.707001 850.678589,360.017975 862.712769,408.669464 
	C867.864624,429.497070 871.128113,450.587036 872.461304,472.062103 
	C876.478943,536.779419 864.221985,598.225708 835.411682,656.171509 
	C802.596558,722.172180 754.113586,773.929626 690.900391,811.841919 
	C658.697327,831.155823 624.431885,845.468018 587.727417,853.678284 
	C555.733582,860.834961 523.276550,864.006409 490.585052,862.109497 
	C411.393372,857.514465 339.594849,832.419189 276.803253,783.145447 
	C206.668976,728.109497 162.787552,656.682373 143.884964,569.795837 
	C139.214859,548.329407 137.071289,526.479309 136.657684,503.991028 
z"/>
<path fill="#000000" opacity="1.000000" stroke="none" 
	d="
M605.248047,316.001648 
	C605.038635,334.118622 603.883972,351.707001 604.324463,369.365051 
	C600.534607,369.889526 597.877991,368.278473 595.064453,367.465210 
	C559.234863,357.108704 522.608398,353.550720 485.495819,355.519836 
	C458.160614,356.970184 431.580811,363.080353 405.358032,370.745361 
	C399.017883,372.598633 396.445435,370.768494 396.795044,364.238464 
	C397.968506,342.320801 399.394104,320.416351 400.512512,298.496124 
	C400.936340,290.189606 400.657227,281.851471 401.620575,273.560944 
	C401.989197,270.388580 401.011719,269.210052 397.318878,269.859985 
	C361.735779,276.122620 332.718414,256.066681 328.093292,220.198883 
	C323.092194,181.414963 344.345978,141.280380 388.342163,134.611252 
	C400.659332,132.744202 412.869965,133.059311 424.871582,136.557220 
	C428.036407,137.479645 429.807495,136.910004 431.797791,134.028061 
	C445.016296,114.888023 463.092010,102.498825 486.095764,99.078430 
	C516.267395,94.592255 542.545959,102.543777 562.165833,127.229866 
	C564.881042,130.646210 566.995056,131.360123 571.240417,129.859161 
	C605.524841,117.737785 641.682190,129.906433 660.687378,160.368423 
	C679.771423,190.956879 671.901062,238.402344 632.370911,255.365891 
	C625.152893,258.463348 617.934998,261.396484 610.154724,262.587097 
	C606.223999,263.188660 605.211548,265.163727 605.258911,269.009857 
	C605.449829,284.504791 605.286194,300.004059 605.248047,316.001648 
M516.446289,236.319061 
	C502.741058,237.801163 489.041870,239.276108 475.561890,242.341660 
	C458.628174,246.192657 442.231781,251.571259 426.602997,259.172882 
	C424.302887,260.291626 421.542114,261.134705 421.357330,264.537811 
	C421.104889,269.186493 420.605377,273.821777 420.356079,278.470551 
	C419.358276,297.075073 418.360687,315.679993 417.495911,334.290955 
	C417.299835,338.510742 416.781616,342.806671 417.962189,347.376587 
	C421.826660,346.503387 425.336273,345.532013 428.909790,344.958649 
	C431.834839,344.489319 432.739868,342.979706 432.681458,340.189972 
	C432.248840,319.535431 437.329193,299.690704 441.852295,279.789856 
	C443.083008,274.374725 445.385956,269.251038 450.622925,264.420441 
	C449.371429,290.398834 451.781555,315.105011 451.455627,340.452881 
	C496.652344,332.457886 540.629456,334.782227 583.942566,345.442230 
	C586.036743,342.690643 585.576294,340.108917 585.612488,337.668549 
	C586.020264,310.189087 586.383545,282.708923 586.754944,255.228943 
	C586.788696,252.729492 586.889526,250.225891 586.789856,247.730988 
	C586.669983,244.728699 587.997559,243.605255 590.967896,243.639252 
	C596.615417,243.703918 602.227478,243.550217 607.878357,242.724121 
	C632.449036,239.132217 652.892700,221.643417 650.679077,193.022552 
	C649.096741,172.563370 638.948792,157.754013 620.314026,149.623077 
	C603.342407,142.217804 586.153137,144.172180 569.479004,151.577103 
	C565.573059,153.311707 561.793884,155.331482 557.566528,157.411911 
	C553.830444,149.286636 549.304993,142.238403 543.419189,135.977768 
	C523.439880,114.726173 494.052368,110.912117 471.072540,124.644615 
	C459.658539,131.465515 451.259460,141.256912 444.517029,152.629242 
	C442.451416,156.113312 442.334320,161.876266 438.314270,162.754349 
	C434.396576,163.610077 430.279053,160.235809 426.287048,158.584839 
	C408.217773,151.111832 390.183502,150.995514 372.866638,160.478531 
	C353.290009,171.199066 342.210388,199.191971 348.050812,221.516739 
	C353.969391,244.140259 371.886871,255.510391 394.472504,250.461853 
	C403.907532,248.352844 412.665436,244.007904 421.409119,239.966034 
	C451.704437,225.961670 483.391479,223.254654 515.991211,227.932785 
	C519.888916,228.492111 524.228638,228.755844 527.689026,231.955353 
	C524.976929,235.744110 520.791077,235.178650 516.446289,236.319061 
z"/>
<path fill="#000000" opacity="1.000000" stroke="none" 
	d="
M790.612488,670.546326 
	C759.811218,720.888855 718.391418,759.449097 667.157104,787.821655 
	C632.882935,806.801941 596.549316,819.712952 557.932678,825.959351 
	C531.225098,830.279419 504.348816,830.802185 477.334808,828.527527 
	C449.654419,826.196716 422.767090,820.420959 396.681030,811.177246 
	C341.045807,791.462708 292.309265,760.998169 253.364182,716.181641 
	C216.988922,674.322388 190.585953,627.057129 178.049545,572.585693 
	C170.569901,540.086182 167.831757,507.092743 169.952255,473.946045 
	C174.413010,404.217865 198.134521,341.560638 242.401657,287.253540 
	C262.277802,262.869415 285.412384,241.757126 311.841919,224.454239 
	C316.065094,221.689407 316.077667,222.028641 317.490387,226.773880 
	C319.330872,232.955902 318.815216,236.701141 312.603912,240.971954 
	C277.679382,264.985626 249.355911,295.444824 227.415619,331.747375 
	C207.129913,365.312286 194.209412,401.623627 187.216705,440.138367 
	C184.000595,457.852142 182.230194,475.710510 182.400192,493.690033 
	C183.023224,559.579956 200.446060,620.097961 238.098633,674.904297 
	C274.953308,728.549377 324.150818,766.045349 383.253906,791.611877 
	C408.911072,802.710571 435.751617,809.687561 463.356079,813.449341 
	C532.012878,822.805603 596.710938,810.525757 657.526672,777.270935 
	C690.720886,759.119995 720.528198,736.733276 745.637939,708.335510 
	C785.146790,663.653076 810.250671,611.893921 821.756714,553.400208 
	C826.868103,527.415283 828.412903,501.125244 826.372803,474.918427 
	C822.607849,426.554474 808.741211,381.070465 784.483032,338.773010 
	C758.827881,294.039703 724.461792,257.911835 680.553589,230.902603 
	C677.404358,228.965439 676.252258,227.159500 678.203979,223.796860 
	C679.603088,221.386307 679.160156,218.244492 681.331726,215.492432 
	C687.435303,218.126160 692.776978,222.040283 698.229675,225.692230 
	C750.860168,260.941772 788.207642,308.642029 813.286194,366.479462 
	C825.209229,393.977081 833.111145,422.518372 837.121033,452.149628 
	C840.498718,477.108917 841.781128,502.201141 839.167236,527.299316 
	C833.828979,578.554871 817.584656,626.197571 790.612488,670.546326 
z"/>
<path fill="#000000" opacity="1.000000" stroke="none" 
	d="
M725.346924,445.116699 
	C725.347961,475.080780 725.201660,504.560913 725.394043,534.038818 
	C725.555481,558.773132 710.608826,571.424072 687.532104,572.240356 
	C671.729614,572.799316 655.891602,572.367859 640.069458,572.352905 
	C633.953674,572.347107 633.264954,571.648499 633.222229,565.459045 
	C633.146423,554.473938 633.068420,543.488464 633.060425,532.503174 
	C633.032959,494.863281 633.028320,457.223358 633.045532,419.583466 
	C633.046509,417.430359 633.158691,415.251160 633.505249,413.130859 
	C633.960388,410.346741 635.635132,408.622467 638.618713,408.692902 
	C657.240784,409.132568 675.930359,407.292480 694.481873,409.646088 
	C714.826660,412.227203 724.983215,424.064697 725.346924,445.116699 
M693.873840,527.421997 
	C693.874390,501.635529 693.885864,475.849060 693.869080,450.062592 
	C693.863770,441.895691 689.682678,437.639496 681.356812,437.349426 
	C677.700500,437.222046 674.013062,437.543274 670.383789,437.197754 
	C665.518250,436.734528 664.190369,438.669647 664.221191,443.424957 
	C664.411560,472.870209 664.300659,502.317291 664.315247,531.763794 
	C664.321655,544.727661 664.348816,544.727661 677.565491,544.676819 
	C690.364868,544.627563 693.742249,541.253967 693.873840,527.421997 
z"/>
<path fill="#000000" opacity="1.000000" stroke="none" 
	d="
M624.990906,596.670288 
	C632.998169,596.435486 640.467529,596.814453 647.746033,598.793701 
	C659.337463,601.945862 666.705078,609.309998 669.668701,621.059692 
	C671.775208,629.411438 671.958557,637.921204 671.040955,646.332153 
	C669.908569,656.711975 664.189636,664.503235 654.279175,670.082642 
	C662.737732,673.550598 668.654236,678.761841 670.424377,687.187195 
	C673.365173,701.184448 673.826843,715.378662 669.755310,729.155029 
	C666.008362,741.832825 655.796143,747.548035 643.562439,750.323486 
	C637.472290,751.705261 631.314148,751.356506 625.167786,751.372986 
	C612.008240,751.408142 598.848450,751.390320 585.688782,751.369385 
	C578.529968,751.357971 577.771790,750.616882 577.760193,743.256165 
	C577.731384,724.932617 577.762451,706.608948 577.762146,688.285339 
	C577.761780,660.466736 577.748047,632.648193 577.755981,604.829590 
	C577.758179,597.100159 578.195984,596.685669 586.013123,596.679993 
	C598.839722,596.670715 611.666382,596.673096 624.990906,596.670288 
M640.667847,704.523438 
	C640.668823,702.692200 640.681030,700.860962 640.668884,699.029785 
	C640.603943,689.221069 634.997070,683.487488 625.288879,683.348450 
	C621.460754,683.293640 617.622314,683.491821 613.805176,683.277893 
	C610.307983,683.081970 609.087036,684.487305 609.161865,687.923157 
	C609.325012,695.410889 609.205383,702.904602 609.215820,710.395874 
	C609.239624,727.385071 609.243164,727.385071 626.107361,726.637939 
	C635.959229,726.201477 640.605286,721.367371 640.659180,711.490723 
	C640.670105,709.493103 640.664734,707.495361 640.667847,704.523438 
M628.662537,622.609131 
	C623.511292,622.534790 618.357178,622.540161 613.209839,622.356262 
	C610.120483,622.245911 609.139282,623.709045 609.160522,626.580688 
	C609.233032,636.392883 609.235962,646.206238 609.167542,656.018433 
	C609.148499,658.754700 610.265015,660.016724 613.002197,659.950378 
	C618.487549,659.817566 623.988464,659.944458 629.455994,659.570496 
	C634.813904,659.204102 638.491882,655.562195 639.699646,650.253357 
	C640.898193,644.985413 640.683350,639.768433 639.952576,634.427307 
	C639.069824,627.974915 635.815430,624.126465 628.662537,622.609131 
z"/>
<path fill="#000000" opacity="1.000000" stroke="none" 
	d="
M448.814697,406.681671 
	C456.218353,407.513397 463.113251,408.291565 469.681183,411.020782 
	C483.432312,416.734924 490.099182,427.307648 490.217194,441.760010 
	C490.482513,474.240021 490.415314,506.724213 490.257477,539.205566 
	C490.180908,554.958618 480.374146,567.387207 465.163574,571.256653 
	C449.580292,575.220886 433.826691,575.249146 418.298096,571.228943 
	C403.619019,567.428711 394.799103,555.562744 394.668945,540.381836 
	C394.412018,510.419220 394.238770,480.455658 394.144135,450.492126 
	C394.129974,446.016449 394.278076,441.451141 395.126282,437.077667 
	C398.372833,420.338623 410.320801,410.073364 428.422180,407.598785 
	C435.062286,406.691040 441.683563,406.630096 448.814697,406.681671 
M459.649017,451.700684 
	C459.618195,441.861267 456.275452,437.108276 446.889008,435.774414 
	C435.641571,434.176117 424.773834,437.498383 425.161072,452.922974 
	C425.834259,479.736694 425.404907,506.579712 425.306152,533.409912 
	C425.285187,539.104492 427.674194,542.966187 432.757843,545.242065 
	C447.435150,551.812866 459.631195,544.061951 459.644226,528.144958 
	C459.664856,502.980835 459.648987,477.816711 459.649017,451.700684 
z"/>
<path fill="#000000" opacity="1.000000" stroke="none" 
	d="
M609.348938,530.985657 
	C609.132263,535.949036 609.235535,540.382812 608.609497,544.885498 
	C606.440979,560.480774 596.697937,568.695312 582.363831,571.839478 
	C568.296997,574.924988 553.961609,575.158813 539.806213,571.947266 
	C523.527527,568.254028 513.914612,556.562927 513.753601,539.324890 
	C513.455078,507.359863 513.162048,475.378662 513.882568,443.427124 
	C514.244202,427.392639 519.937012,413.984100 542.736389,408.642548 
	C556.555603,405.404938 570.479736,405.547058 584.143677,409.479218 
	C600.270447,414.120209 609.311707,426.390900 609.335815,443.076355 
	C609.377930,472.213684 609.348328,501.351135 609.348938,530.985657 
M549.127197,543.444824 
	C555.018372,547.855713 561.745972,547.355530 568.261963,546.032471 
	C575.832886,544.495056 578.618713,540.785889 578.650146,533.039551 
	C578.761536,505.584473 578.777039,478.128632 578.710571,450.673370 
	C578.687988,441.333496 575.750671,437.906067 566.657349,435.760193 
	C553.234192,432.592499 544.342712,439.527771 544.335632,453.222900 
	C544.322327,479.015350 544.360291,504.807800 544.326294,530.600220 
	C544.320190,535.246643 545.160095,539.520325 549.127197,543.444824 
z"/>
<path fill="#000000" opacity="1.000000" stroke="none" 
	d="
M361.091003,751.919800 
	C356.486572,751.710999 352.330597,751.495483 348.171844,751.381165 
	C341.716400,751.203552 340.720154,750.259949 340.718140,743.673340 
	C340.706451,705.525513 340.723480,667.377686 340.725861,629.229858 
	C340.726410,620.400879 340.876343,611.567078 340.620789,602.745239 
	C340.506836,598.812195 342.338837,597.090271 345.786499,596.980835 
	C352.442139,596.769531 359.116119,596.659912 365.766266,596.921143 
	C370.095856,597.091125 370.291565,600.703735 370.299652,603.943054 
	C370.340912,620.434692 370.322693,636.926514 370.300720,653.418274 
	C370.291870,660.045898 370.487152,660.341370 377.330627,660.451294 
	C384.825012,660.571716 392.326111,660.405640 399.815735,660.638794 
	C404.118073,660.772705 405.746094,659.129028 405.708313,654.790283 
	C405.560333,637.799988 405.821503,620.804871 405.548553,603.817627 
	C405.466614,598.717224 407.615143,596.841064 412.214691,596.796753 
	C417.544861,596.745483 422.879150,596.645752 428.205414,596.792542 
	C433.968262,596.951355 435.282440,598.318115 435.285461,603.992493 
	C435.310547,651.302429 435.252319,698.612549 435.377930,745.922180 
	C435.390137,750.521301 433.595490,752.290527 429.253815,752.228882 
	C424.257263,752.157898 419.258911,752.233032 414.261597,752.199951 
	C406.363190,752.147583 405.031128,750.933472 404.962158,742.861389 
	C404.852570,730.035461 404.942566,717.207764 404.949158,704.380859 
	C404.951660,699.549988 404.841705,694.715332 404.997375,689.889343 
	C405.124237,685.956116 403.790436,684.145630 399.517975,684.285522 
	C391.530518,684.546997 383.525116,684.494263 375.533691,684.301697 
	C371.631500,684.207764 370.262512,685.662903 370.291992,689.558472 
	C370.426880,707.381958 370.352600,725.207092 370.344269,743.031616 
	C370.340546,751.016724 369.525909,751.832397 361.091003,751.919800 
z"/>
<path fill="#000000" opacity="1.000000" stroke="none" 
	d="
M457.649841,706.979370 
	C457.652222,672.497437 457.649597,638.511780 457.662079,604.526062 
	C457.664520,597.853943 458.469391,596.928467 464.956848,596.773315 
	C470.450836,596.641968 475.957336,596.595886 481.446411,596.813293 
	C487.217682,597.041931 488.333862,598.342407 488.336823,604.127625 
	C488.355042,639.945862 488.344757,675.764160 488.353790,711.582397 
	C488.355804,719.620483 491.097900,723.401672 498.873718,725.739502 
	C504.444458,727.414429 510.107635,727.245117 515.545776,725.275574 
	C523.108215,722.536499 524.577820,716.079468 524.594055,709.072205 
	C524.651550,684.249451 524.728760,659.425842 524.562744,634.604065 
	C524.491638,623.965698 525.501404,613.290527 523.786255,602.684448 
	C523.245178,599.338501 525.145508,597.562317 528.158203,597.196899 
	C535.451599,596.312500 542.790588,596.614197 550.102600,596.975891 
	C553.248474,597.131531 553.363770,599.682251 553.356567,602.158020 
	C553.325867,612.653503 553.349304,623.149109 553.349121,633.644714 
	C553.348633,660.799927 553.400696,687.955383 553.310852,715.110291 
	C553.284119,723.193237 551.738403,730.937195 547.164490,737.880249 
	C540.279724,748.330994 529.750305,752.163330 518.155029,752.982422 
	C506.747650,753.788330 495.208344,754.405762 483.901062,751.376465 
	C470.154541,747.693542 460.676392,737.007019 458.715576,722.879761 
	C458.005951,717.767029 457.372070,712.654236 457.649841,706.979370 
z"/>
<path fill="#000000" opacity="1.000000" stroke="none" 
	d="
M376.053833,422.974060 
	C376.135559,437.043274 376.135590,437.056763 362.427032,437.086243 
	C351.436493,437.109894 340.443146,437.237000 329.456665,437.025970 
	C325.277161,436.945709 323.920624,438.455414 324.029297,442.554565 
	C324.263092,451.374176 324.082672,460.204346 324.121399,469.029938 
	C324.128571,470.661896 323.862671,472.377045 325.424072,474.645020 
	C336.018616,474.645020 347.140137,474.635681 358.261658,474.648163 
	C366.171906,474.657013 367.168427,475.641998 367.182983,483.517151 
	C367.192230,488.512177 367.123718,493.507324 367.114197,498.502441 
	C367.107758,501.880280 365.786163,503.517273 362.071198,503.666260 
	C351.247894,504.100372 340.422638,504.091492 329.628418,503.511230 
	C324.875610,503.255707 324.002197,505.095184 324.031158,509.193176 
	C324.155762,526.843689 324.086731,544.495667 324.053589,562.147156 
	C324.049530,564.304199 323.924591,566.470215 323.697357,568.615295 
	C323.430603,571.133484 322.064178,572.397095 319.371887,572.363281 
	C312.212494,572.273193 305.050873,572.278992 297.891052,572.344299 
	C295.299225,572.367981 293.756165,571.296448 293.390961,568.736267 
	C293.134094,566.935547 292.879181,565.113281 292.877716,563.300476 
	C292.839233,515.008362 292.831909,466.716248 292.824554,418.424133 
	C292.823181,409.436096 293.588593,408.661316 302.410858,408.659851 
	C324.225586,408.656250 346.040344,408.653351 367.855072,408.661102 
	C375.337006,408.663757 375.997711,409.348206 376.049500,416.993927 
	C376.061920,418.825714 376.053894,420.657593 376.053833,422.974060 
z"/>
<path fill="#000000" opacity="1.000000" stroke="none" 
	d="
M700.087219,395.375916 
	C696.272583,395.967896 695.229309,394.437897 695.834595,391.166260 
	C696.949219,385.141205 697.696655,379.036041 699.093811,373.080811 
	C699.753845,370.267456 698.827454,368.897095 696.922424,367.160614 
	C686.292969,357.471344 683.186951,345.136475 686.964966,331.774628 
	C690.761230,318.348236 699.020203,308.545013 714.071899,306.600342 
	C724.507446,305.252075 731.290710,308.811218 735.178284,318.773895 
	C740.315613,331.939087 740.022278,345.203156 733.534485,357.857025 
	C729.546448,365.635437 723.222046,370.850983 713.986267,371.367523 
	C711.587830,371.501678 710.473145,372.469666 710.099670,374.905853 
	C709.372559,379.648621 707.952454,384.312103 707.550598,389.070190 
	C707.148926,393.825958 704.805542,395.511597 700.087219,395.375916 
z"/>
<path fill="#000000" opacity="1.000000" stroke="none" 
	d="
M293.056885,312.605652 
	C295.024017,310.434753 297.086365,309.556152 299.534485,310.711334 
	C301.892212,311.823853 301.354492,314.120392 301.252441,316.003174 
	C300.753967,325.198456 302.387054,334.209839 303.397400,343.276306 
	C303.529877,344.465088 303.735321,345.596893 305.382507,346.073944 
	C307.332611,344.994659 306.621185,342.955414 306.646393,341.323853 
	C306.767395,333.497528 306.706024,325.668549 306.807434,317.841766 
	C306.853699,314.270416 307.722931,311.107208 312.098907,310.721863 
	C314.891541,310.475952 317.080048,311.177063 317.356964,314.531372 
	C318.326477,326.274780 320.376282,338.056671 319.923737,349.742981 
	C319.641693,357.025787 313.929291,363.015289 306.788940,365.963409 
	C302.862640,367.584534 301.638550,369.531311 302.780060,373.467194 
	C303.992279,377.646820 303.734070,382.085907 303.926666,386.325562 
	C304.137482,390.966309 299.354431,390.002380 296.310608,390.258850 
	C292.964600,390.540771 290.914825,389.033356 291.128754,385.270355 
	C291.374176,380.953400 291.406372,376.624054 291.666718,372.308289 
	C291.820374,369.760773 290.845123,368.370514 288.384125,367.518127 
	C277.588959,363.779114 272.497070,355.697693 273.734894,344.302948 
	C274.666077,335.730774 275.737762,327.173309 276.807861,318.616913 
	C277.528015,312.858795 279.727570,310.828094 284.266327,311.562653 
	C286.646881,311.947937 287.986053,312.647552 287.665436,315.773834 
	C286.835968,323.861786 285.820648,331.969238 286.328949,340.143799 
	C286.450439,342.097137 286.062531,344.258270 289.470734,345.272217 
	C292.049347,334.568695 290.986023,323.583893 293.056885,312.605652 
z"/>
</svg>